<svg width="32" height="32" viewBox="0 0 32 32" fill="none" xmlns="http://www.w3.org/2000/svg">
<g clip-path="url(#clip0_2246_3282)">
<circle cx="16" cy="16" r="16" fill="#E72A2A"/>
<path fill-rule="evenodd" clip-rule="evenodd" d="M22.1738 10.4586L19.2351 7.45904C18.9289 7.18353 18.5307 7 18.1023 7H9.34695C8.60593 7.00644 8.00673 7.60542 8 8.34641V22.8873C8.00644 23.6285 8.60573 24.2278 9.34695 24.2342H16.9389C16.2657 23.4996 15.8368 22.7953 15.8368 21.6932C15.8368 19.3361 17.8268 17.3773 20.2451 17.3773C21.2859 17.3773 21.8983 17.7443 22.6334 18.3261V11.5914C22.6334 11.2545 22.4187 10.7341 22.1738 10.4586ZM15.4698 18.2039H11.0302C10.7859 18.2039 10.5712 17.8977 10.5712 17.5C10.5712 17.1018 10.7859 16.7956 11.0308 16.7956H15.4999C15.7453 16.7956 15.9595 17.1024 15.9595 17.5C15.9595 17.867 15.7453 18.2039 15.4698 18.2039H15.4698ZM19.3572 15.1118H11.2756C10.8774 15.1118 10.5712 14.8056 10.5712 14.408C10.5712 14.0097 10.8779 13.7035 11.2756 13.7035H19.388C19.7862 13.7035 20.0924 14.0103 20.0924 14.408C20.0924 14.8062 19.7555 15.1118 19.3573 15.1118H19.3572ZM19.3572 12.0504H11.2756C10.8774 12.0504 10.5712 11.7447 10.5712 11.3465C10.5712 10.9483 10.8779 10.6426 11.2756 10.6426H19.388C19.7862 10.6426 20.0924 10.9483 20.0924 11.3465C20.0617 11.7447 19.7555 12.0504 19.3573 12.0504H19.3572ZM20.2146 18.3266C19.3267 18.3266 18.47 18.663 17.8576 19.306C17.2145 19.9184 16.8782 20.7751 16.8782 21.6631C16.8782 22.551 17.2145 23.4082 17.8576 24.0206C18.5006 24.6637 19.3267 25 20.2453 25C21.1332 25 21.9904 24.6637 22.6023 24.0206C22.9145 23.7129 23.162 23.3459 23.3303 22.9411C23.4986 22.5363 23.5843 22.1019 23.5822 21.6636C23.5822 20.7757 23.2453 19.9184 22.6028 19.3066C22.2891 18.9938 21.9165 18.7461 21.5066 18.5779C21.0967 18.4098 20.6576 18.3244 20.2146 18.3266ZM20.3 24.2C20.5756 24.2 20.8 23.9907 20.8 23.7338C20.8 23.4768 20.5756 23.2675 20.3 23.2675C20.0245 23.2675 19.8 23.4768 19.8 23.7338C19.8 23.9907 20.0245 24.2 20.3 24.2ZM20.3532 22.8527C20.5993 22.8527 20.8 22.6655 20.8 22.4361V19.6167C20.8 19.3872 20.5993 19.2 20.3532 19.2H20.2489C20.0028 19.2 19.802 19.3872 19.802 19.6167V22.4361C19.802 22.6655 20.0028 22.8527 20.2489 22.8527H20.3532Z" fill="white"/>
</g>
<defs>
<clipPath id="clip0_2246_3282">
<rect width="32" height="32" fill="white"/>
</clipPath>
</defs>
</svg>
